g Cone
v 0.042152 2.072196 0.042152
v 0.02143271 2.072196 0.05174313
v 4.589289E-17 2.072196 0.05961192
v 5.684342E-17 2.094868 0
v 0.05961192 2.072196 0
v 0.05174313 2.072196 0.02143271
v 0.042152 2.072196 -0.042152
v 0.05174313 2.072196 -0.02143271
v 0.02143271 2.072196 -0.05174313
v 6.04936E-17 2.072196 -0.05961192
v -0.042152 2.072196 0.042152
v -0.02143271 2.072196 0.05174313
v -0.042152 2.072196 -0.042152
v -0.021076 2.072196 -0.05088196
v -0.05961192 2.072196 -7.300355E-18
v -0.05174313 2.072196 0.02143271
v -0.05174313 2.072196 -0.02143271
v 0.8532727 -5.684342E-17 -0.4670892
v 0.829688 0.2195784 5.684342E-17
v 0.8296871 0.2195784 -0.4435023
v 0.853272 -5.684342E-17 5.684342E-17
v 0.8296871 0.2195784 0.4435023
v 0.8532727 -5.684342E-17 0.4670892
v 1.330743E-16 2.273737E-16 -0.853272
v 0.4670892 7.179076E-17 -0.8532727
v 0.4435023 0.2195784 -0.8296871
v 1.310318E-16 0.2195784 -0.829688
v -0.4670892 2.273737E-16 -0.8532727
v -0.4435023 0.2195784 -0.8296871
v 0.05174313 2.072196 -0.02143271
v 0.5128343 0.2186925 -0.2124229
v 0.6008227 0.2186925 0
v 0.05961192 2.072196 0
v -0.853272 2.273737E-16 -1.425405E-16
v -0.8532727 2.273737E-16 -0.4670892
v -0.8296871 0.2195784 -0.4435023
v -0.829688 0.2195784 -1.384554E-16
v -0.8532727 2.273737E-16 0.4670892
v -0.8296871 0.2195784 0.4435023
v 0.02143271 2.072196 0.05174313
v -5.352591E-17 0.2186925 0.6008227
v 4.589289E-17 2.072196 0.05961192
v 0.2124229 0.2186925 0.5128343
v 0.4248458 0.2186925 0.4248458
v 0.042152 2.072196 0.042152
v -0.02143271 2.072196 0.05174313
v 4.589289E-17 2.072196 0.05961192
v -5.352591E-17 0.2186925 0.6008227
v -0.2124229 0.2186925 0.5128343
v -0.4248458 0.2186925 0.4248458
v -0.042152 2.072196 0.042152
v -0.05174313 2.072196 0.02143271
v -0.042152 2.072196 0.042152
v -0.4248458 0.2186925 0.4248458
v -0.5128343 0.2186925 0.2124229
v -0.6008227 0.2186925 -7.357956E-17
v -0.05961192 2.072196 -7.300355E-18
v -1.718492E-16 2.273737E-16 0.853272
v -0.4670892 2.273737E-16 0.8532727
v -0.4435023 0.2195784 0.8296871
v -1.657216E-16 0.2195784 0.829688
v -0.05174313 2.072196 -0.02143271
v -0.05961192 2.072196 -7.300355E-18
v -0.6008227 0.2186925 -7.357956E-17
v -0.5128343 0.2186925 -0.2124229
v -0.4248458 0.2186925 -0.4248458
v -0.042152 2.072196 -0.042152
v -0.021076 2.072196 -0.05088196
v -0.042152 2.072196 -0.042152
v -0.4248458 0.2186925 -0.4248458
v -0.2124229 0.2186925 -0.5128343
v 9.36332E-17 0.2186925 -0.6008227
v 6.04936E-17 2.072196 -0.05961192
v 0.02143271 2.072196 -0.05174313
v 6.04936E-17 2.072196 -0.05961192
v 9.36332E-17 0.2186925 -0.6008227
v 0.2124229 0.2186925 -0.5128343
v 0.4248458 0.2186925 -0.4248458
v 0.042152 2.072196 -0.042152
v 0.4670892 7.179076E-17 0.8532727
v -1.718492E-16 2.273737E-16 0.853272
v -1.657216E-16 0.2195784 0.829688
v 0.4435023 0.2195784 0.8296871
v 0.05174313 2.072196 -0.02143271
v 0.042152 2.072196 -0.042152
v 0.4248458 0.2186925 -0.4248458
v 0.5128343 0.2186925 -0.2124229
v 0.05174313 2.072196 0.02143271
v 0.05961192 2.072196 0
v 0.6008227 0.2186925 0
v 0.5128343 0.2186925 0.2124229
v 0.4248458 0.2186925 0.4248458
v 0.042152 2.072196 0.042152
v 0.4435023 0.2195784 -0.8296871
v 0.4670892 7.179076E-17 -0.8532727
v 0.6559491 8.883318E-18 -0.8039419
v 0.6323626 0.2195784 -0.7803558
v 0.7422999 -1.576421E-17 -0.7422999
v 0.7183143 0.2195784 -0.7183143
v 0.8039419 -4.041174E-17 -0.6559491
v 0.7803558 0.2195784 -0.6323626
v 0.8532727 -5.684342E-17 -0.4670892
v 0.8296871 0.2195784 -0.4435023
v -0.8296871 0.2195784 -0.4435023
v -0.8532727 2.273737E-16 -0.4670892
v -0.8039419 2.273737E-16 -0.6559491
v -0.7803558 0.2195784 -0.6323626
v -0.7422999 2.273737E-16 -0.7422999
v -0.7183143 0.2195784 -0.7183143
v -0.6559491 2.273737E-16 -0.8039419
v -0.6323626 0.2195784 -0.7803558
v -0.4670892 2.273737E-16 -0.8532727
v -0.4435023 0.2195784 -0.8296871
v -0.4435023 0.2195784 0.8296871
v -0.4670892 2.273737E-16 0.8532727
v -0.6559491 2.273737E-16 0.8039419
v -0.6323626 0.2195784 0.7803558
v -0.7422999 2.273737E-16 0.7422999
v -0.7183143 0.2195784 0.7183143
v -0.8039419 2.273737E-16 0.6559491
v -0.7803558 0.2195784 0.6323626
v -0.8532727 2.273737E-16 0.4670892
v -0.8296871 0.2195784 0.4435023
v 0.8296871 0.2195784 0.4435023
v 0.8532727 -5.684342E-17 0.4670892
v 0.8039419 -4.041174E-17 0.6559491
v 0.7803558 0.2195784 0.6323626
v 0.7422999 -1.576421E-17 0.7422999
v 0.7183143 0.2195784 0.7183143
v 0.6559491 8.883318E-18 0.8039419
v 0.6323626 0.2195784 0.7803558
v 0.4670892 7.179076E-17 0.8532727
v 0.4435023 0.2195784 0.8296871
v -0.2124229 0.2186925 0.5128343
v -5.352591E-17 0.2186925 0.6008227
v -1.657216E-16 0.2195784 0.829688
v 0.2124229 0.2186925 0.5128343
v -0.4435023 0.2195784 0.8296871
v -0.5581576 0.2189842 0.5581576
v -0.4248458 0.2186925 0.4248458
v -0.6323626 0.2195784 0.7803558
v -0.7183143 0.2195784 0.7183143
v -0.7803558 0.2195784 0.6323626
v 0.4435023 0.2195784 0.8296871
v 0.5581576 0.2189842 0.5581576
v 0.4248458 0.2186925 0.4248458
v 0.6323626 0.2195784 0.7803558
v 0.7183143 0.2195784 0.7183143
v 0.7803558 0.2195784 0.6323626
v -0.8296871 0.2195784 0.4435023
v -0.5128343 0.2186925 0.2124229
v -0.829688 0.2195784 -1.384554E-16
v -0.6008227 0.2186925 -7.357956E-17
v -0.5128343 0.2186925 -0.2124229
v 0.8296871 0.2195784 0.4435023
v 0.5128343 0.2186925 0.2124229
v 0.829688 0.2195784 5.684342E-17
v 0.6008227 0.2186925 0
v 0.5128343 0.2186925 -0.2124229
v -0.8296871 0.2195784 -0.4435023
v -0.5581576 0.2189842 -0.5581576
v -0.4248458 0.2186925 -0.4248458
v -0.7803558 0.2195784 -0.6323626
v -0.7183143 0.2195784 -0.7183143
v -0.6323626 0.2195784 -0.7803558
v 0.8296871 0.2195784 -0.4435023
v 0.5581576 0.2189842 -0.5581576
v 0.4248458 0.2186925 -0.4248458
v 0.7803558 0.2195784 -0.6323626
v 0.7183143 0.2195784 -0.7183143
v 0.6323626 0.2195784 -0.7803558
v -0.4435023 0.2195784 -0.8296871
v -0.2124229 0.2186925 -0.5128343
v 1.310318E-16 0.2195784 -0.829688
v 9.36332E-17 0.2186925 -0.6008227
v 0.2124229 0.2186925 -0.5128343
v 0.4435023 0.2195784 -0.8296871
v 0.6601809 7.47367E-18 0.6601809
v 0.7422999 -1.576421E-17 0.7422999
v 0.8039419 -4.041174E-17 0.6559491
v 0.6559491 8.883318E-18 0.8039419
v 0.8532727 -5.684342E-17 0.4670892
v 0.4670892 7.179076E-17 0.8532727
v 0.853272 -5.684342E-17 5.684342E-17
v -1.718492E-16 2.273737E-16 0.853272
v -1.938744E-17 2.273737E-16 5.684342E-15
v 0.8532727 -5.684342E-17 -0.4670892
v -0.6601809 2.273737E-16 0.6601809
v -0.4670892 2.273737E-16 0.8532727
v -0.6559491 2.273737E-16 0.8039419
v -0.7422999 2.273737E-16 0.7422999
v -0.8039419 2.273737E-16 0.6559491
v -0.8532727 2.273737E-16 0.4670892
v -0.853272 2.273737E-16 -1.425405E-16
v -0.6601809 2.273737E-16 -0.6601809
v -0.8532727 2.273737E-16 -0.4670892
v -0.8039419 2.273737E-16 -0.6559491
v -0.7422999 2.273737E-16 -0.7422999
v -0.6559491 2.273737E-16 -0.8039419
v -0.4670892 2.273737E-16 -0.8532727
v 1.330743E-16 2.273737E-16 -0.853272
v 0.6601809 7.473708E-18 -0.6601809
v 0.4670892 7.179076E-17 -0.8532727
v 0.8039419 -4.041174E-17 -0.6559491
v 0.6559491 8.883318E-18 -0.8039419
v 0.7422999 -1.576421E-17 -0.7422999
vt 0.4703422 0.4164175
vt 0.4595509 0.4114221
vt 0.4483881 0.4073237
vt 0.4483881 0.4383717
vt 0.479436 0.4383717
vt 0.4753377 0.4272088
vt 0.4703422 0.4603258
vt 0.4753377 0.4495343
vt 0.4595509 0.4653212
vt 0.4483881 0.4694196
vt 0.4264339 0.4164175
vt 0.4372252 0.4114221
vt 0.4264339 0.4603258
vt 0.437411 0.4648727
vt 0.4173402 0.4383717
vt 0.4214386 0.4272088
vt 0.4214386 0.4495343
vt 0.7878625 0.3420488
vt 0.8310648 0.3878103
vt 0.788748 0.3878103
vt 0.8310554 0.3420488
vt 0.8733821 0.3878103
vt 0.8742486 0.3420488
vt 0.6870867 0.3420488
vt 0.7312824 0.3420488
vt 0.7303867 0.3878103
vt 0.6870875 0.3878103
vt 0.6428919 0.3420488
vt 0.6437889 0.3878103
vt 0.9762686 0.97934
vt 0.9762686 0.4824384
vt 0.9411681 0.4824384
vt 0.9411681 0.97934
vt 0.5431333 0.3420488
vt 0.586318 0.3420488
vt 0.5854326 0.3878103
vt 0.5431234 0.3878103
vt 0.4999495 0.3420488
vt 0.5008153 0.3878103
vt 0.8358665 0.97934
vt 0.8007659 0.4824384
vt 0.8007659 0.97934
vt 0.8358665 0.4824384
vt 0.870967 0.4824384
vt 0.870967 0.97934
vt 0.7656654 0.97934
vt 0.8007659 0.97934
vt 0.8007659 0.4824384
vt 0.7656654 0.4824384
vt 0.7305648 0.4824384
vt 0.7305648 0.97934
vt 0.6954643 0.97934
vt 0.7305648 0.97934
vt 0.7305648 0.4824384
vt 0.6954643 0.4824384
vt 0.6603638 0.4824384
vt 0.6603638 0.97934
vt 0.4057483 0.3420488
vt 0.4459577 0.3420488
vt 0.4451212 0.3878103
vt 0.4057265 0.3878103
vt 0.6252632 0.97934
vt 0.6603638 0.97934
vt 0.6603638 0.4824384
vt 0.6252632 0.4824384
vt 0.5901627 0.4824384
vt 0.5901627 0.97934
vt 0.5550621 0.97934
vt 0.5901627 0.97934
vt 0.5901627 0.4824384
vt 0.5550621 0.4824384
vt 0.5199616 0.4824384
vt 0.5199616 0.97934
vt 0.484861 0.97934
vt 0.5199616 0.97934
vt 0.5199616 0.4824384
vt 0.484861 0.4824384
vt 0.4497605 0.4824384
vt 0.4497605 0.97934
vt 0.9282582 0.3420488
vt 0.9684848 0.3420488
vt 0.9685046 0.3878103
vt 0.9290935 0.3878103
vt 0.4146599 0.97934
vt 0.4497605 0.97934
vt 0.4497605 0.4824384
vt 0.4146599 0.4824384
vt 0.9060676 0.97934
vt 0.9411681 0.97934
vt 0.9411681 0.4824384
vt 0.9060676 0.4824384
vt 0.870967 0.4824384
vt 0.870967 0.97934
vt 0.7303867 0.3878103
vt 0.7312824 0.3420488
vt 0.7497436 0.3420488
vt 0.7494351 0.3878103
vt 0.7597494 0.3420488
vt 0.7597491 0.3878103
vt 0.7697014 0.3420488
vt 0.7700094 0.3878103
vt 0.7878625 0.3420488
vt 0.788748 0.3878103
vt 0.5854326 0.3878103
vt 0.586318 0.3420488
vt 0.6044762 0.3420488
vt 0.6041688 0.3878103
vt 0.6144269 0.3420488
vt 0.6144279 0.3878103
vt 0.6244316 0.3420488
vt 0.6247413 0.3878103
vt 0.6428919 0.3420488
vt 0.6437889 0.3878103
vt 0.4451212 0.3878103
vt 0.4459577 0.3420488
vt 0.4629866 0.3420488
vt 0.4626922 0.3878103
vt 0.4724292 0.3420488
vt 0.4724297 0.3878103
vt 0.4820311 0.3420488
vt 0.4823264 0.3878103
vt 0.4999495 0.3420488
vt 0.5008153 0.3878103
vt 0.8733821 0.3878103
vt 0.8742486 0.3420488
vt 0.8921719 0.3420488
vt 0.8918756 0.3878103
vt 0.9017768 0.3420488
vt 0.9017751 0.3878103
vt 0.9112228 0.3420488
vt 0.9115158 0.3878103
vt 0.9282582 0.3420488
vt 0.9290935 0.3878103
vt 0.148939 0.2804013
vt 0.1973366 0.2603544
vt 0.1973366 0.2082106
vt 0.2457342 0.2804013
vt 0.09629086 0.2082108
vt 0.07016826 0.270075
vt 0.1005415 0.3004482
vt 0.05326169 0.2194502
vt 0.0336788 0.2335856
vt 0.01954353 0.2531685
vt 0.2983823 0.2082108
vt 0.3245049 0.270075
vt 0.2941317 0.3004482
vt 0.3414115 0.2194502
vt 0.3609944 0.2335856
vt 0.3751297 0.2531685
vt 0.008304081 0.2961977
vt 0.08049455 0.3488458
vt 0.008303865 0.3972434
vt 0.06044761 0.3972434
vt 0.08049455 0.4456409
vt 0.3863691 0.2961977
vt 0.3141787 0.3488458
vt 0.3863693 0.3972434
vt 0.3342256 0.3972434
vt 0.3141787 0.4456409
vt 0.008304081 0.4982891
vt 0.07016826 0.5244117
vt 0.1005415 0.4940385
vt 0.01954353 0.5413182
vt 0.0336788 0.5609012
vt 0.05326169 0.5750364
vt 0.3863691 0.4982891
vt 0.3245049 0.5244117
vt 0.2941317 0.4940385
vt 0.3751297 0.5413182
vt 0.3609944 0.5609012
vt 0.3414115 0.5750364
vt 0.09629086 0.5862759
vt 0.148939 0.5140854
vt 0.1973366 0.5862761
vt 0.1973366 0.5341324
vt 0.2457342 0.5140854
vt 0.2983823 0.5862759
vt 0.3531229 0.9477029
vt 0.3718326 0.9664125
vt 0.3858769 0.9467387
vt 0.3521588 0.9804568
vt 0.3971162 0.9037097
vt 0.3091297 0.9916961
vt 0.3971161 0.79729
vt 0.20271 0.991696
vt 0.20271 0.79729
vt 0.3971162 0.6908703
vt 0.0522971 0.9477029
vt 0.09629034 0.9916961
vt 0.05326126 0.9804568
vt 0.03358746 0.9664125
vt 0.01954318 0.9467387
vt 0.008303865 0.9037097
vt 0.008304008 0.79729
vt 0.0522971 0.6468771
vt 0.008303865 0.6908703
vt 0.01954318 0.6478412
vt 0.03358746 0.6281674
vt 0.05326126 0.6141231
vt 0.09629034 0.6028838
vt 0.20271 0.6028839
vt 0.3531229 0.6468771
vt 0.3091297 0.6028838
vt 0.3858769 0.6478412
vt 0.3521588 0.6141231
vt 0.3718326 0.6281674
vn 0.247705 0.9366347 0.247705
vn 0.1435984 0.9269274 0.3466771
vn 0 0.9366347 0.3503077
vn -0.009562845 0.9997179 0.02174173
vn 0.3503077 0.9366347 0
vn 0.3466771 0.9269274 0.1435984
vn 0.2125575 0.9634518 -0.1630334
vn 0.3466771 0.9269274 -0.1435984
vn 0.07425056 0.9809964 -0.1792567
vn -0.03608271 0.9626825 -0.2682175
vn -0.247705 0.9366347 0.247705
vn -0.1435984 0.9269274 0.3466771
vn -0.2487952 0.9356601 -0.2502821
vn -0.1456791 0.9247077 -0.3517004
vn -0.3503077 0.9366347 0
vn -0.3466771 0.9269274 0.1435984
vn -0.3466771 0.9269274 -0.1435984
vn 0.9942811 0.106795 -3.123963E-07
vn 0.9942811 0.1067951 0
vn 0.9942811 0.106795 -3.123963E-07
vn 0.9942811 0.1067951 0
vn 0.9942811 0.1067952 3.123949E-07
vn 0.9942811 0.1067952 3.123949E-07
vn 0 0.1067951 -0.9942811
vn 3.123949E-07 0.1067952 -0.9942811
vn 3.123949E-07 0.1067952 -0.9942811
vn 0 0.1067951 -0.9942811
vn -3.123963E-07 0.106795 -0.9942811
vn -3.123963E-07 0.106795 -0.9942811
vn 0.8920488 0.2602296 -0.3694987
vn 0.8920488 0.2602296 -0.3694987
vn 0.8994206 0.260179 -0.3512114
vn 0.8994206 0.260179 -0.3512114
vn -0.9942811 0.1067951 0
vn -0.9942811 0.1067952 -3.123949E-07
vn -0.9942811 0.1067952 -3.123949E-07
vn -0.9942811 0.1067951 0
vn -0.9942811 0.106795 3.123963E-07
vn -0.9942811 0.106795 3.123963E-07
vn 0.3694987 0.2602296 0.8920488
vn 0.3512114 0.260179 0.8994206
vn 0.3512114 0.260179 0.8994206
vn 0.3694987 0.2602296 0.8920488
vn 0.3876424 0.2601791 0.8843304
vn 0.3876424 0.2601791 0.8843304
vn -0.3694989 0.2602297 0.8920488
vn -0.3512114 0.260179 0.8994206
vn -0.3512114 0.260179 0.8994206
vn -0.3694989 0.2602297 0.8920488
vn -0.3876427 0.2601791 0.8843302
vn -0.3876427 0.2601791 0.8843302
vn -0.8920488 0.2602296 0.3694987
vn -0.8843304 0.2601791 0.3876424
vn -0.8843304 0.2601791 0.3876424
vn -0.8920488 0.2602296 0.3694987
vn -0.8994206 0.260179 0.3512114
vn -0.8994206 0.260179 0.3512114
vn 0 0.1067951 0.9942811
vn -3.123949E-07 0.1067952 0.9942811
vn -3.123949E-07 0.1067952 0.9942811
vn 0 0.1067951 0.9942811
vn -0.8920488 0.2602297 -0.3694989
vn -0.8994206 0.260179 -0.3512114
vn -0.8994206 0.260179 -0.3512114
vn -0.8920488 0.2602297 -0.3694989
vn -0.8843302 0.2601791 -0.3876427
vn -0.8843302 0.2601791 -0.3876427
vn -0.3694754 0.260456 -0.8919925
vn -0.3694755 0.260456 -0.8919924
vn -0.3694755 0.260456 -0.8919924
vn -0.3694754 0.260456 -0.8919925
vn -0.3694752 0.260456 -0.8919925
vn -0.3694752 0.260456 -0.8919925
vn 0.3694989 0.2602297 -0.8920488
vn 0.3512114 0.260179 -0.8994206
vn 0.3512114 0.260179 -0.8994206
vn 0.3694989 0.2602297 -0.8920488
vn 0.3876427 0.2601791 -0.8843302
vn 0.3876427 0.2601791 -0.8843302
vn 3.123963E-07 0.106795 0.9942811
vn 0 0.1067951 0.9942811
vn 0 0.1067951 0.9942811
vn 3.123963E-07 0.106795 0.9942811
vn 0.8920488 0.2602296 -0.3694987
vn 0.8843304 0.2601791 -0.3876424
vn 0.8843304 0.2601791 -0.3876424
vn 0.8920488 0.2602296 -0.3694987
vn 0.8920488 0.2602297 0.3694989
vn 0.8994206 0.260179 0.3512114
vn 0.8994206 0.260179 0.3512114
vn 0.8920488 0.2602297 0.3694989
vn 0.8843302 0.2601791 0.3876427
vn 0.8843302 0.2601791 0.3876427
vn 0.2505816 0.1299631 -0.9593323
vn 0.2505816 0.1299631 -0.9593323
vn 0.420532 0.142063 -0.8960864
vn 0.420532 0.142063 -0.8960864
vn 0.6989529 0.1514285 -0.6989523
vn 0.6989529 0.1514285 -0.6989523
vn 0.8960866 0.1420635 -0.4205316
vn 0.8960866 0.1420635 -0.4205316
vn 0.9593323 0.1299631 -0.2505816
vn 0.9593323 0.1299631 -0.2505816
vn -0.9593323 0.1299631 -0.2505816
vn -0.9593323 0.1299631 -0.2505816
vn -0.8960864 0.142063 -0.420532
vn -0.8960864 0.142063 -0.420532
vn -0.6989523 0.1514285 -0.6989529
vn -0.6989523 0.1514285 -0.6989529
vn -0.4205316 0.1420635 -0.8960865
vn -0.4205316 0.1420635 -0.8960865
vn -0.2505817 0.1299631 -0.9593322
vn -0.2505817 0.1299631 -0.9593322
vn -0.2505816 0.1299631 0.9593323
vn -0.2505816 0.1299631 0.9593323
vn -0.420532 0.142063 0.8960864
vn -0.420532 0.142063 0.8960864
vn -0.6989529 0.1514285 0.6989523
vn -0.6989529 0.1514285 0.6989523
vn -0.8960866 0.1420635 0.4205316
vn -0.8960866 0.1420635 0.4205316
vn -0.9593323 0.1299631 0.2505816
vn -0.9593323 0.1299631 0.2505816
vn 0.9593323 0.1299631 0.2505816
vn 0.9593323 0.1299631 0.2505816
vn 0.8960864 0.142063 0.420532
vn 0.8960864 0.142063 0.420532
vn 0.6989523 0.1514285 0.6989529
vn 0.6989523 0.1514285 0.6989529
vn 0.4205316 0.1420635 0.8960865
vn 0.4205316 0.1420635 0.8960865
vn 0.2505817 0.1299631 0.9593322
vn 0.2505817 0.1299631 0.9593322
vn 0.0004446841 0.9999965 -0.002588299
vn 0 0.9999955 -0.003008919
vn 0 0.9999955 -0.003008919
vn -0.000444684 0.9999965 -0.002588299
vn 0.0004446841 0.9999965 -0.002588299
vn 0.001306175 0.9999983 -0.001306175
vn 0.001306175 0.9999983 -0.001306175
vn 0.000534949 0.999999 -0.001319985
vn 0.000927467 0.9999992 -0.0009274669
vn 0.001319985 0.999999 -0.0005349489
vn -0.000444684 0.9999965 -0.002588299
vn -0.001306175 0.9999983 -0.001306175
vn -0.001306175 0.9999983 -0.001306175
vn -0.0005349489 0.999999 -0.001319985
vn -0.0009274669 0.9999992 -0.000927467
vn -0.001319985 0.999999 -0.000534949
vn 0.002588299 0.9999965 -0.000444684
vn 0.002588299 0.9999965 -0.000444684
vn 0.003008919 0.9999955 0
vn 0.003008919 0.9999955 0
vn 0.002588299 0.9999965 0.0004446841
vn -0.002588299 0.9999965 -0.0004446841
vn -0.002588299 0.9999965 -0.0004446841
vn -0.003008919 0.9999955 0
vn -0.003008919 0.9999955 0
vn -0.002588299 0.9999965 0.000444684
vn 0.002588299 0.9999965 0.0004446841
vn 0.001306175 0.9999983 0.001306175
vn 0.001306175 0.9999983 0.001306175
vn 0.001319985 0.999999 0.000534949
vn 0.0009274669 0.9999992 0.000927467
vn 0.0005349489 0.999999 0.001319985
vn -0.002588299 0.9999965 0.000444684
vn -0.001306175 0.9999983 0.001306175
vn -0.001306175 0.9999983 0.001306175
vn -0.001319985 0.999999 0.0005349489
vn -0.000927467 0.9999992 0.0009274669
vn -0.000534949 0.999999 0.001319985
vn 0.000444684 0.9999965 0.002588299
vn 0.000444684 0.9999965 0.002588299
vn 0 0.9999955 0.003008919
vn 0 0.9999955 0.003008919
vn -0.0004446841 0.9999965 0.002588299
vn -0.0004446841 0.9999965 0.002588299
vn 0 -1 0
vn 0 -1 0
vn 0 -1 0
vn 0 -1 0
vn 0 -1 0
vn 0 -1 0
vn 0 -1 0
vn 0 -1 0
vn 0 -1 0
vn 0 -1 0
vn 0 -1 0
vn 0 -1 0
vn 0 -1 0
vn 0 -1 0
vn 0 -1 0
vn 0 -1 0
vn 0 -1 0
vn 0 -1 0
vn 0 -1 0
vn 0 -1 0
vn 0 -1 0
vn 0 -1 0
vn 0 -1 0
vn 0 -1 0
vn 0 -1 0
vn 0 -1 0
vn 0 -1 0
vn 0 -1 0
vn 0 -1 0
g Cone_0
f 3/3/3 2/2/2 1/1/1
f 4/4/4 3/3/3 1/1/1
f 4/4/4 1/1/1 5/5/5
f 1/1/1 6/6/6 5/5/5
f 4/4/4 5/5/5 7/7/7
f 5/5/5 8/8/8 7/7/7
f 7/7/7 9/9/9 4/4/4
f 9/9/9 10/10/10 4/4/4
f 4/4/4 11/11/11 3/3/3
f 11/11/11 12/12/12 3/3/3
f 4/4/4 10/10/10 13/13/13
f 10/10/10 14/14/14 13/13/13
f 4/4/4 15/15/15 11/11/11
f 4/4/4 13/13/13 15/15/15
f 15/15/15 16/16/16 11/11/11
f 13/13/13 17/17/17 15/15/15
f 20/20/20 19/19/19 18/18/18
f 19/19/19 21/21/21 18/18/18
f 19/19/19 22/22/22 21/21/21
f 22/22/22 23/23/23 21/21/21
f 26/26/26 25/25/25 24/24/24
f 27/27/27 26/26/26 24/24/24
f 27/27/27 24/24/24 28/28/28
f 29/29/29 27/27/27 28/28/28
f 32/32/32 31/31/31 30/30/30
f 33/33/33 32/32/32 30/30/30
f 36/36/36 35/35/35 34/34/34
f 37/37/37 36/36/36 34/34/34
f 37/37/37 34/34/34 38/38/38
f 39/39/39 37/37/37 38/38/38
f 42/42/42 41/41/41 40/40/40
f 41/41/41 43/43/43 40/40/40
f 43/43/43 44/44/44 40/40/40
f 44/44/44 45/45/45 40/40/40
f 48/48/48 47/47/47 46/46/46
f 49/49/49 48/48/48 46/46/46
f 50/50/50 49/49/49 46/46/46
f 51/51/51 50/50/50 46/46/46
f 54/54/54 53/53/53 52/52/52
f 55/55/55 54/54/54 52/52/52
f 56/56/56 55/55/55 52/52/52
f 57/57/57 56/56/56 52/52/52
f 60/60/60 59/59/59 58/58/58
f 61/61/61 60/60/60 58/58/58
f 64/64/64 63/63/63 62/62/62
f 65/65/65 64/64/64 62/62/62
f 66/66/66 65/65/65 62/62/62
f 67/67/67 66/66/66 62/62/62
f 70/70/70 69/69/69 68/68/68
f 71/71/71 70/70/70 68/68/68
f 72/72/72 71/71/71 68/68/68
f 73/73/73 72/72/72 68/68/68
f 76/76/76 75/75/75 74/74/74
f 77/77/77 76/76/76 74/74/74
f 78/78/78 77/77/77 74/74/74
f 79/79/79 78/78/78 74/74/74
f 82/82/82 81/81/81 80/80/80
f 83/83/83 82/82/82 80/80/80
f 86/86/86 85/85/85 84/84/84
f 87/87/87 86/86/86 84/84/84
f 90/90/90 89/89/89 88/88/88
f 91/91/91 90/90/90 88/88/88
f 92/92/92 91/91/91 88/88/88
f 93/93/93 92/92/92 88/88/88
f 96/96/96 95/95/95 94/94/94
f 97/97/97 96/96/96 94/94/94
f 96/96/96 97/97/97 98/98/98
f 97/97/97 99/99/99 98/98/98
f 100/100/100 98/98/98 99/99/99
f 101/101/101 100/100/100 99/99/99
f 102/102/102 100/100/100 101/101/101
f 103/103/103 102/102/102 101/101/101
f 106/106/106 105/105/105 104/104/104
f 107/107/107 106/106/106 104/104/104
f 106/106/106 107/107/107 108/108/108
f 107/107/107 109/109/109 108/108/108
f 110/110/110 108/108/108 109/109/109
f 111/111/111 110/110/110 109/109/109
f 112/112/112 110/110/110 111/111/111
f 113/113/113 112/112/112 111/111/111
f 116/116/116 115/115/115 114/114/114
f 117/117/117 116/116/116 114/114/114
f 118/118/118 116/116/116 117/117/117
f 119/119/119 118/118/118 117/117/117
f 120/120/120 118/118/118 119/119/119
f 121/121/121 120/120/120 119/119/119
f 122/122/122 120/120/120 121/121/121
f 123/123/123 122/122/122 121/121/121
f 126/126/126 125/125/125 124/124/124
f 127/127/127 126/126/126 124/124/124
f 128/128/128 126/126/126 127/127/127
f 129/129/129 128/128/128 127/127/127
f 130/130/130 128/128/128 129/129/129
f 131/131/131 130/130/130 129/129/129
f 132/132/132 130/130/130 131/131/131
f 133/133/133 132/132/132 131/131/131
f 136/136/136 135/135/135 134/134/134
f 135/135/135 136/136/136 137/137/137
f 138/138/138 136/136/136 134/134/134
f 139/139/139 138/138/138 134/134/134
f 140/140/140 139/139/139 134/134/134
f 141/141/141 138/138/138 139/139/139
f 142/142/142 141/141/141 139/139/139
f 143/143/143 142/142/142 139/139/139
f 136/136/136 144/144/144 137/137/137
f 144/144/144 145/145/145 137/137/137
f 145/145/145 146/146/146 137/137/137
f 144/144/144 147/147/147 145/145/145
f 147/147/147 148/148/148 145/145/145
f 148/148/148 149/149/149 145/145/145
f 150/150/150 143/143/143 139/139/139
f 139/139/139 140/140/140 151/151/151
f 150/150/150 139/139/139 151/151/151
f 152/152/152 150/150/150 151/151/151
f 153/153/153 152/152/152 151/151/151
f 152/152/152 153/153/153 154/154/154
f 149/149/149 155/155/155 145/145/145
f 146/146/146 145/145/145 156/156/156
f 145/145/145 155/155/155 156/156/156
f 155/155/155 157/157/157 156/156/156
f 157/157/157 158/158/158 156/156/156
f 158/158/158 157/157/157 159/159/159
f 160/160/160 152/152/152 154/154/154
f 161/161/161 160/160/160 154/154/154
f 162/162/162 161/161/161 154/154/154
f 163/163/163 160/160/160 161/161/161
f 164/164/164 163/163/163 161/161/161
f 165/165/165 164/164/164 161/161/161
f 157/157/157 166/166/166 159/159/159
f 166/166/166 167/167/167 159/159/159
f 167/167/167 168/168/168 159/159/159
f 166/166/166 169/169/169 167/167/167
f 169/169/169 170/170/170 167/167/167
f 170/170/170 171/171/171 167/167/167
f 172/172/172 165/165/165 161/161/161
f 161/161/161 162/162/162 173/173/173
f 172/172/172 161/161/161 173/173/173
f 174/174/174 172/172/172 173/173/173
f 175/175/175 174/174/174 173/173/173
f 174/174/174 175/175/175 176/176/176
f 168/168/168 167/167/167 176/176/176
f 171/171/171 177/177/177 167/167/167
f 177/177/177 174/174/174 176/176/176
f 167/167/167 177/177/177 176/176/176
f 180/180/180 179/179/179 178/178/178
f 179/179/179 181/181/181 178/178/178
f 182/182/182 180/180/180 178/178/178
f 181/181/181 183/183/183 178/178/178
f 184/184/184 182/182/182 178/178/178
f 183/183/183 185/185/185 178/178/178
f 186/186/186 184/184/184 178/178/178
f 185/185/185 186/186/186 178/178/178
f 187/187/187 184/184/184 186/186/186
f 186/186/186 185/185/185 188/188/188
f 185/185/185 189/189/189 188/188/188
f 189/189/189 190/190/190 188/188/188
f 190/190/190 191/191/191 188/188/188
f 191/191/191 192/192/192 188/188/188
f 192/192/192 193/193/193 188/188/188
f 188/188/188 193/193/193 186/186/186
f 193/193/193 194/194/194 186/186/186
f 186/186/186 194/194/194 195/195/195
f 194/194/194 196/196/196 195/195/195
f 196/196/196 197/197/197 195/195/195
f 197/197/197 198/198/198 195/195/195
f 198/198/198 199/199/199 195/195/195
f 199/199/199 200/200/200 195/195/195
f 200/200/200 201/201/201 195/195/195
f 201/201/201 186/186/186 195/195/195
f 186/186/186 201/201/201 202/202/202
f 202/202/202 187/187/187 186/186/186
f 201/201/201 203/203/203 202/202/202
f 204/204/204 187/187/187 202/202/202
f 203/203/203 205/205/205 202/202/202
f 206/206/206 204/204/204 202/202/202
f 205/205/205 206/206/206 202/202/202
